<svg width="16" height="16" viewBox="0 0 16 16" fill="none" xmlns="http://www.w3.org/2000/svg">
<path fill-rule="evenodd" clip-rule="evenodd" d="M6.09305 11.6695C5.89216 11.4559 5.89216 11.1095 6.09305 10.8958L8.81573 8L6.09305 5.10419C5.89216 4.89053 5.89216 4.54412 6.09305 4.33046C6.29393 4.1168 6.61963 4.1168 6.82052 4.33046L9.90694 7.61313C10.1078 7.82679 10.1078 8.17321 9.90694 8.38687L6.82052 11.6695C6.61963 11.8832 6.29393 11.8832 6.09305 11.6695Z" fill="#77818C"/>
<path fill-rule="evenodd" clip-rule="evenodd" d="M9.90694 8.38687C10.1078 8.17321 10.1078 7.82679 9.90694 7.61313L6.82052 4.33046C6.61963 4.1168 6.29393 4.1168 6.09305 4.33046C5.89216 4.54412 5.89216 4.89053 6.09305 5.10419L8.81573 8L6.09305 10.8958C5.89216 11.1095 5.89216 11.4559 6.09305 11.6695C6.29393 11.8832 6.61963 11.8832 6.82052 11.6695L9.90694 8.38687ZM8.58614 8L5.97502 10.7772C5.71202 11.0569 5.71202 11.5085 5.97502 11.7882C6.24055 12.0706 6.67302 12.0706 6.93854 11.7882L10.025 8.50552C10.288 8.22579 10.288 7.77421 10.025 7.49448L6.93854 4.21181C6.67302 3.9294 6.24055 3.9294 5.97502 4.21181C5.71202 4.49153 5.71202 4.94312 5.97502 5.22284L8.58614 8Z" fill="#77818C"/>
</svg>
